<svg id="Layer_1" data-name="Layer 1" xmlns="http://www.w3.org/2000/svg" viewBox="0 0 172.14 126.42"><defs><style>.cls-1{fill:none;stroke:#fff;stroke-miterlimit:10;stroke-width:2px;}</style></defs><path class="cls-1" d="M125.4,134.08c-12.72,12.15-15.14,53.79,0,63.92,3.69,2.47,16,3,19.08,0,6.23-6.17,0-32,0-32l42.4,70s22.1-83.95,0-102c-3-2.45-14.29-2.69-17,0-6.64,6.71,0,34.51,0,34.51S155.23,139,144.48,134.08C140.33,132.16,128.5,131.12,125.4,134.08Z" transform="translate(-113.93 -131.15)"/><path class="cls-1" d="M274.16,254.64c15.23-10,13.84-52.62,0-63.92-3.38-2.75-16.08-3-19.08,0-6.16,6.22,0,32,0,32l-42.4-70s-19.64,82.14,0,102c2.66,2.7,14,2.45,17,0,7.47-6.1,0-34.51,0-34.51s15.33,28.74,25.44,34.51C259,256.88,270.45,257.09,274.16,254.64Z" transform="translate(-113.93 -131.15)"/></svg>